<svg width="4680" height="3140" xmlns="http://www.w3.org/2000/svg" xmlns:xlink="http://www.w3.org/1999/xlink" xml:space="preserve" overflow="hidden"><defs><clipPath id="clip0"><rect x="4830" y="2676" width="4680" height="3140"/></clipPath><clipPath id="clip1"><rect x="4833" y="2680" width="4671" height="3130"/></clipPath><clipPath id="clip2"><rect x="4833" y="2680" width="4671" height="3130"/></clipPath><clipPath id="clip3"><rect x="4833" y="2680" width="4671" height="3130"/></clipPath><clipPath id="clip4"><rect x="4833" y="2680" width="4671" height="3130"/></clipPath><clipPath id="clip5"><rect x="5045" y="2877" width="4316" height="2665"/></clipPath><clipPath id="clip6"><rect x="4833" y="2680" width="4671" height="3130"/></clipPath><clipPath id="clip7"><rect x="5045" y="2877" width="4316" height="2665"/></clipPath><clipPath id="clip8"><rect x="4833" y="2680" width="4671" height="3130"/></clipPath><clipPath id="clip9"><rect x="5045" y="2877" width="4316" height="2665"/></clipPath><clipPath id="clip10"><rect x="4833" y="2680" width="4671" height="3130"/></clipPath><clipPath id="clip11"><rect x="5045" y="2877" width="4316" height="2665"/></clipPath><clipPath id="clip12"><rect x="4833" y="2680" width="4671" height="3130"/></clipPath><clipPath id="clip13"><rect x="5045" y="2877" width="4316" height="2665"/></clipPath><clipPath id="clip14"><rect x="4833" y="2680" width="4671" height="3130"/></clipPath><clipPath id="clip15"><rect x="5045" y="2877" width="4316" height="2665"/></clipPath><clipPath id="clip16"><rect x="4833" y="2680" width="4671" height="3130"/></clipPath><clipPath id="clip17"><rect x="5045" y="2877" width="4316" height="2665"/></clipPath><clipPath id="clip18"><rect x="4833" y="2680" width="4671" height="3130"/></clipPath><clipPath id="clip19"><rect x="5045" y="2877" width="4316" height="2665"/></clipPath><clipPath id="clip20"><rect x="4833" y="2680" width="4671" height="3130"/></clipPath><clipPath id="clip21"><rect x="4833" y="2680" width="4671" height="3130"/></clipPath><clipPath id="clip22"><rect x="4833" y="2680" width="4671" height="3130"/></clipPath><clipPath id="clip23"><rect x="4833" y="2680" width="4671" height="3130"/></clipPath><clipPath id="clip24"><rect x="4833" y="2680" width="4671" height="3130"/></clipPath><clipPath id="clip25"><rect x="4833" y="2680" width="4671" height="3130"/></clipPath><clipPath id="clip26"><rect x="4833" y="2680" width="4671" height="3130"/></clipPath><clipPath id="clip27"><rect x="4833" y="2680" width="4671" height="3130"/></clipPath><clipPath id="clip28"><rect x="4833" y="2680" width="4671" height="3130"/></clipPath><clipPath id="clip29"><rect x="4833" y="2680" width="4671" height="3130"/></clipPath><clipPath id="clip30"><rect x="4833" y="2680" width="4671" height="3130"/></clipPath><clipPath id="clip31"><rect x="4833" y="2680" width="4671" height="3130"/></clipPath><clipPath id="clip32"><rect x="4833" y="2680" width="4671" height="3130"/></clipPath><clipPath id="clip33"><rect x="4833" y="2680" width="4671" height="3130"/></clipPath><clipPath id="clip34"><rect x="4833" y="2680" width="4671" height="3130"/></clipPath><clipPath id="clip35"><rect x="4833" y="2680" width="4671" height="3130"/></clipPath><clipPath id="clip36"><rect x="4833" y="2680" width="4671" height="3130"/></clipPath><clipPath id="clip37"><rect x="4833" y="2680" width="4671" height="3130"/></clipPath><clipPath id="clip38"><rect x="4833" y="2680" width="4671" height="3130"/></clipPath><clipPath id="clip39"><rect x="4833" y="2680" width="4671" height="3130"/></clipPath><clipPath id="clip40"><rect x="4833" y="2680" width="4671" height="3130"/></clipPath><clipPath id="clip41"><rect x="4833" y="2680" width="4671" height="3130"/></clipPath><clipPath id="clip42"><rect x="4833" y="2680" width="4671" height="3130"/></clipPath><clipPath id="clip43"><rect x="4833" y="2680" width="4671" height="3130"/></clipPath><clipPath id="clip44"><rect x="4833" y="2680" width="4671" height="3130"/></clipPath><clipPath id="clip45"><rect x="4833" y="2680" width="4671" height="3130"/></clipPath><clipPath id="clip46"><rect x="4833" y="2680" width="4671" height="3130"/></clipPath><clipPath id="clip47"><rect x="4833" y="2680" width="4671" height="3130"/></clipPath><clipPath id="clip48"><rect x="4833" y="2680" width="4671" height="3130"/></clipPath><clipPath id="clip49"><rect x="4833" y="2680" width="4671" height="3130"/></clipPath><clipPath id="clip50"><rect x="4833" y="2680" width="4671" height="3130"/></clipPath><clipPath id="clip51"><rect x="4833" y="2680" width="4671" height="3130"/></clipPath><clipPath id="clip52"><rect x="4833" y="2680" width="4671" height="3130"/></clipPath><clipPath id="clip53"><rect x="4833" y="2680" width="4671" height="3130"/></clipPath><clipPath id="clip54"><rect x="4833" y="2680" width="4671" height="3130"/></clipPath><clipPath id="clip55"><rect x="4833" y="2680" width="4671" height="3130"/></clipPath><clipPath id="clip56"><rect x="4833" y="2680" width="4671" height="3130"/></clipPath><clipPath id="clip57"><rect x="4833" y="2680" width="4671" height="3130"/></clipPath><clipPath id="clip58"><rect x="4833" y="2680" width="4671" height="3130"/></clipPath><clipPath id="clip59"><rect x="4833" y="2680" width="4671" height="3130"/></clipPath><clipPath id="clip60"><rect x="4833" y="2680" width="4671" height="3130"/></clipPath></defs><g clip-path="url(#clip0)" transform="translate(-4830 -2676)"><rect x="4833" y="2680" width="4672" height="3131" fill="#FFFFFF" fill-opacity="1"/><g clip-path="url(#clip1)"><path d="M5045.5 5243.67 9358.5 5243.67M5045.5 4947.66 9358.5 4947.66M5045.5 4651.65 9358.5 4651.65M5045.5 4356.64 9358.5 4356.64M5045.5 4060.63 9358.5 4060.63M5045.5 3764.62 9358.5 3764.62M5045.5 3468.61 9358.5 3468.61M5045.5 3173.6 9358.5 3173.6M5045.5 2877.5 9358.5 2877.5" stroke="#D9D9D9" stroke-width="3.4375" stroke-linecap="butt" stroke-linejoin="round" stroke-miterlimit="10" stroke-opacity="1" fill="none" fill-rule="nonzero"/></g><g clip-path="url(#clip2)"><path d="M5907.69 2877.5 5907.69 5539.5M6770.72 2877.5 6770.72 5539.5M7632.75 2877.5 7632.75 5539.5M8495.78 2877.5 8495.78 5539.5M9358.5 2877.5 9358.5 5539.5" stroke="#D9D9D9" stroke-width="3.4375" stroke-linecap="butt" stroke-linejoin="round" stroke-miterlimit="10" stroke-opacity="1" fill="none" fill-rule="nonzero"/></g><g clip-path="url(#clip3)"><path d="M0 0 0.000360892 2662" stroke="#BFBFBF" stroke-width="3.4375" stroke-linecap="butt" stroke-linejoin="round" stroke-miterlimit="10" stroke-opacity="1" fill="none" fill-rule="evenodd" transform="matrix(1 0 0 -1 5045.5 5539.5)"/></g><g clip-path="url(#clip4)"><path d="M5045.5 5539.5 9358.5 5539.5" stroke="#BFBFBF" stroke-width="3.4375" stroke-linecap="butt" stroke-linejoin="round" stroke-miterlimit="10" stroke-opacity="1" fill="none" fill-rule="evenodd"/></g><g clip-path="url(#clip5)"><path d="M5045.5 5450.5 6770.72 4600.65 8495.78 3796.62 9358.5 3529.5" stroke="#A5A5A5" stroke-width="6.875" stroke-linecap="round" stroke-linejoin="round" stroke-miterlimit="10" stroke-opacity="1" fill="none" fill-rule="nonzero"/></g><g clip-path="url(#clip6)"><path d="M5056.62 5450.6C5056.62 5456.68 5051.7 5461.6 5045.62 5461.6 5039.55 5461.6 5034.62 5456.68 5034.62 5450.6 5034.62 5444.53 5039.55 5439.6 5045.62 5439.6 5051.7 5439.6 5056.62 5444.53 5056.62 5450.6Z" stroke="#A5A5A5" stroke-width="3.4375" stroke-linecap="butt" stroke-linejoin="round" stroke-miterlimit="10" stroke-opacity="1" fill="#A5A5A5" fill-rule="nonzero" fill-opacity="1"/><path d="M6781.62 4600.6C6781.62 4606.68 6776.7 4611.6 6770.62 4611.6 6764.55 4611.6 6759.62 4606.68 6759.62 4600.6 6759.62 4594.53 6764.55 4589.6 6770.62 4589.6 6776.7 4589.6 6781.62 4594.53 6781.62 4600.6Z" stroke="#A5A5A5" stroke-width="3.4375" stroke-linecap="butt" stroke-linejoin="round" stroke-miterlimit="10" stroke-opacity="1" fill="#A5A5A5" fill-rule="nonzero" fill-opacity="1"/><path d="M8506.62 3797.6C8506.62 3803.68 8501.7 3808.6 8495.62 3808.6 8489.55 3808.6 8484.62 3803.68 8484.62 3797.6 8484.62 3791.53 8489.55 3786.6 8495.62 3786.6 8501.7 3786.6 8506.62 3791.53 8506.62 3797.6Z" stroke="#A5A5A5" stroke-width="3.4375" stroke-linecap="butt" stroke-linejoin="round" stroke-miterlimit="10" stroke-opacity="1" fill="#A5A5A5" fill-rule="nonzero" fill-opacity="1"/><path d="M9369.62 3529.6C9369.62 3535.68 9364.7 3540.6 9358.62 3540.6 9352.55 3540.6 9347.62 3535.68 9347.62 3529.6 9347.62 3523.53 9352.55 3518.6 9358.62 3518.6 9364.7 3518.6 9369.62 3523.53 9369.62 3529.6Z" stroke="#A5A5A5" stroke-width="3.4375" stroke-linecap="butt" stroke-linejoin="round" stroke-miterlimit="10" stroke-opacity="1" fill="#A5A5A5" fill-rule="nonzero" fill-opacity="1"/></g><g clip-path="url(#clip7)"><path d="M5045.5 5309.5 6770.72 4247.64 8495.78 3587.62 9358.5 3302.5" stroke="#FFC000" stroke-width="6.875" stroke-linecap="round" stroke-linejoin="round" stroke-miterlimit="10" stroke-opacity="1" fill="none" fill-rule="nonzero"/></g><g clip-path="url(#clip8)"><path d="M5056.62 5309.6C5056.62 5315.68 5051.7 5320.6 5045.62 5320.6 5039.55 5320.6 5034.62 5315.68 5034.62 5309.6 5034.62 5303.53 5039.55 5298.6 5045.62 5298.6 5051.7 5298.6 5056.62 5303.53 5056.62 5309.6Z" stroke="#FFC000" stroke-width="3.4375" stroke-linecap="butt" stroke-linejoin="round" stroke-miterlimit="10" stroke-opacity="1" fill="#FFC000" fill-rule="nonzero" fill-opacity="1"/><path d="M6781.62 4247.6C6781.62 4253.68 6776.7 4258.6 6770.62 4258.6 6764.55 4258.6 6759.62 4253.68 6759.62 4247.6 6759.62 4241.53 6764.55 4236.6 6770.62 4236.6 6776.7 4236.6 6781.62 4241.53 6781.62 4247.6Z" stroke="#FFC000" stroke-width="3.4375" stroke-linecap="butt" stroke-linejoin="round" stroke-miterlimit="10" stroke-opacity="1" fill="#FFC000" fill-rule="nonzero" fill-opacity="1"/><path d="M8506.62 3587.6C8506.62 3593.68 8501.7 3598.6 8495.62 3598.6 8489.55 3598.6 8484.62 3593.68 8484.62 3587.6 8484.62 3581.53 8489.55 3576.6 8495.62 3576.6 8501.7 3576.6 8506.62 3581.53 8506.62 3587.6Z" stroke="#FFC000" stroke-width="3.4375" stroke-linecap="butt" stroke-linejoin="round" stroke-miterlimit="10" stroke-opacity="1" fill="#FFC000" fill-rule="nonzero" fill-opacity="1"/><path d="M9369.62 3302.6C9369.62 3308.68 9364.7 3313.6 9358.62 3313.6 9352.55 3313.6 9347.62 3308.68 9347.62 3302.6 9347.62 3296.53 9352.55 3291.6 9358.62 3291.6 9364.7 3291.6 9369.62 3296.53 9369.62 3302.6Z" stroke="#FFC000" stroke-width="3.4375" stroke-linecap="butt" stroke-linejoin="round" stroke-miterlimit="10" stroke-opacity="1" fill="#FFC000" fill-rule="nonzero" fill-opacity="1"/></g><g clip-path="url(#clip9)"><path d="M5045.5 4485.5 6770.72 3888.63 8495.78 3293.61 9358.5 2995.5" stroke="#5B9BD5" stroke-width="6.875" stroke-linecap="round" stroke-linejoin="round" stroke-miterlimit="10" stroke-opacity="1" fill="none" fill-rule="nonzero"/></g><g clip-path="url(#clip10)"><path d="M5056.62 4485.6C5056.62 4491.68 5051.7 4496.6 5045.62 4496.6 5039.55 4496.6 5034.62 4491.68 5034.62 4485.6 5034.62 4479.53 5039.55 4474.6 5045.62 4474.6 5051.7 4474.6 5056.62 4479.53 5056.62 4485.6Z" stroke="#5B9BD5" stroke-width="3.4375" stroke-linecap="butt" stroke-linejoin="round" stroke-miterlimit="10" stroke-opacity="1" fill="#5B9BD5" fill-rule="nonzero" fill-opacity="1"/><path d="M6781.62 3888.6C6781.62 3894.68 6776.7 3899.6 6770.62 3899.6 6764.55 3899.6 6759.62 3894.68 6759.62 3888.6 6759.62 3882.53 6764.55 3877.6 6770.62 3877.6 6776.7 3877.6 6781.62 3882.53 6781.62 3888.6Z" stroke="#5B9BD5" stroke-width="3.4375" stroke-linecap="butt" stroke-linejoin="round" stroke-miterlimit="10" stroke-opacity="1" fill="#5B9BD5" fill-rule="nonzero" fill-opacity="1"/><path d="M8506.62 3293.6C8506.62 3299.68 8501.7 3304.6 8495.62 3304.6 8489.55 3304.6 8484.62 3299.68 8484.62 3293.6 8484.62 3287.53 8489.55 3282.6 8495.62 3282.6 8501.7 3282.6 8506.62 3287.53 8506.62 3293.6Z" stroke="#5B9BD5" stroke-width="3.4375" stroke-linecap="butt" stroke-linejoin="round" stroke-miterlimit="10" stroke-opacity="1" fill="#5B9BD5" fill-rule="nonzero" fill-opacity="1"/><path d="M9369.62 2995.6C9369.62 3001.68 9364.7 3006.6 9358.62 3006.6 9352.55 3006.6 9347.62 3001.68 9347.62 2995.6 9347.62 2989.53 9352.55 2984.6 9358.62 2984.6 9364.7 2984.6 9369.62 2989.53 9369.62 2995.6Z" stroke="#5B9BD5" stroke-width="3.4375" stroke-linecap="butt" stroke-linejoin="round" stroke-miterlimit="10" stroke-opacity="1" fill="#5B9BD5" fill-rule="nonzero" fill-opacity="1"/></g><g clip-path="url(#clip11)"><path d="M5045.5 4485.5 6770.72 4047.63 8495.78 3448.61 9358.5 3151.5" stroke="#70AD47" stroke-width="6.875" stroke-linecap="round" stroke-linejoin="round" stroke-miterlimit="10" stroke-opacity="1" fill="none" fill-rule="nonzero"/></g><g clip-path="url(#clip12)"><path d="M5056.62 4485.6C5056.62 4491.68 5051.7 4496.6 5045.62 4496.6 5039.55 4496.6 5034.62 4491.68 5034.62 4485.6 5034.62 4479.53 5039.55 4474.6 5045.62 4474.6 5051.7 4474.6 5056.62 4479.53 5056.62 4485.6Z" stroke="#70AD47" stroke-width="3.4375" stroke-linecap="butt" stroke-linejoin="round" stroke-miterlimit="10" stroke-opacity="1" fill="#70AD47" fill-rule="nonzero" fill-opacity="1"/><path d="M6781.62 4048.6C6781.62 4054.68 6776.7 4059.6 6770.62 4059.6 6764.55 4059.6 6759.62 4054.68 6759.62 4048.6 6759.62 4042.53 6764.55 4037.6 6770.62 4037.6 6776.7 4037.6 6781.62 4042.53 6781.62 4048.6Z" stroke="#70AD47" stroke-width="3.4375" stroke-linecap="butt" stroke-linejoin="round" stroke-miterlimit="10" stroke-opacity="1" fill="#70AD47" fill-rule="nonzero" fill-opacity="1"/><path d="M8506.62 3448.6C8506.62 3454.68 8501.7 3459.6 8495.62 3459.6 8489.55 3459.6 8484.62 3454.68 8484.62 3448.6 8484.62 3442.53 8489.55 3437.6 8495.62 3437.6 8501.7 3437.6 8506.62 3442.53 8506.62 3448.6Z" stroke="#70AD47" stroke-width="3.4375" stroke-linecap="butt" stroke-linejoin="round" stroke-miterlimit="10" stroke-opacity="1" fill="#70AD47" fill-rule="nonzero" fill-opacity="1"/><path d="M9369.62 3151.6C9369.62 3157.68 9364.7 3162.6 9358.62 3162.6 9352.55 3162.6 9347.62 3157.68 9347.62 3151.6 9347.62 3145.53 9352.55 3140.6 9358.62 3140.6 9364.7 3140.6 9369.62 3145.53 9369.62 3151.6Z" stroke="#70AD47" stroke-width="3.4375" stroke-linecap="butt" stroke-linejoin="round" stroke-miterlimit="10" stroke-opacity="1" fill="#70AD47" fill-rule="nonzero" fill-opacity="1"/></g><g clip-path="url(#clip13)"><path d="M5045.5 4561.5 6770.72 4132.64 8495.78 3534.62 9358.5 3238.5" stroke="#264478" stroke-width="6.875" stroke-linecap="round" stroke-linejoin="round" stroke-miterlimit="10" stroke-opacity="1" fill="none" fill-rule="nonzero"/></g><g clip-path="url(#clip14)"><path d="M5056.62 4561.6C5056.62 4567.68 5051.7 4572.6 5045.62 4572.6 5039.55 4572.6 5034.62 4567.68 5034.62 4561.6 5034.62 4555.53 5039.55 4550.6 5045.62 4550.6 5051.7 4550.6 5056.62 4555.53 5056.62 4561.6Z" stroke="#264478" stroke-width="3.4375" stroke-linecap="butt" stroke-linejoin="round" stroke-miterlimit="10" stroke-opacity="1" fill="#264478" fill-rule="nonzero" fill-opacity="1"/><path d="M6781.62 4133.6C6781.62 4139.68 6776.7 4144.6 6770.62 4144.6 6764.55 4144.6 6759.62 4139.68 6759.62 4133.6 6759.62 4127.53 6764.55 4122.6 6770.62 4122.6 6776.7 4122.6 6781.62 4127.53 6781.62 4133.6Z" stroke="#264478" stroke-width="3.4375" stroke-linecap="butt" stroke-linejoin="round" stroke-miterlimit="10" stroke-opacity="1" fill="#264478" fill-rule="nonzero" fill-opacity="1"/><path d="M8506.62 3534.6C8506.62 3540.68 8501.7 3545.6 8495.62 3545.6 8489.55 3545.6 8484.62 3540.68 8484.62 3534.6 8484.62 3528.53 8489.55 3523.6 8495.62 3523.6 8501.7 3523.6 8506.62 3528.53 8506.62 3534.6Z" stroke="#264478" stroke-width="3.4375" stroke-linecap="butt" stroke-linejoin="round" stroke-miterlimit="10" stroke-opacity="1" fill="#264478" fill-rule="nonzero" fill-opacity="1"/><path d="M9369.62 3238.6C9369.62 3244.68 9364.7 3249.6 9358.62 3249.6 9352.55 3249.6 9347.62 3244.68 9347.62 3238.6 9347.62 3232.53 9352.55 3227.6 9358.62 3227.6 9364.7 3227.6 9369.62 3232.53 9369.62 3238.6Z" stroke="#264478" stroke-width="3.4375" stroke-linecap="butt" stroke-linejoin="round" stroke-miterlimit="10" stroke-opacity="1" fill="#264478" fill-rule="nonzero" fill-opacity="1"/></g><g clip-path="url(#clip15)"><path d="M5045.5 4613.5 6770.72 4218.64 8495.78 3619.62 9358.5 3323.5" stroke="#9E480E" stroke-width="6.875" stroke-linecap="round" stroke-linejoin="round" stroke-miterlimit="10" stroke-opacity="1" fill="none" fill-rule="nonzero"/></g><g clip-path="url(#clip16)"><path d="M5056.62 4613.6C5056.62 4619.68 5051.7 4624.6 5045.62 4624.6 5039.55 4624.6 5034.62 4619.68 5034.62 4613.6 5034.62 4607.53 5039.55 4602.6 5045.62 4602.6 5051.7 4602.6 5056.62 4607.53 5056.62 4613.6Z" stroke="#9E480E" stroke-width="3.4375" stroke-linecap="butt" stroke-linejoin="round" stroke-miterlimit="10" stroke-opacity="1" fill="#9E480E" fill-rule="nonzero" fill-opacity="1"/><path d="M6781.62 4218.6C6781.62 4224.68 6776.7 4229.6 6770.62 4229.6 6764.55 4229.6 6759.62 4224.68 6759.62 4218.6 6759.62 4212.53 6764.55 4207.6 6770.62 4207.6 6776.7 4207.6 6781.62 4212.53 6781.62 4218.6Z" stroke="#9E480E" stroke-width="3.4375" stroke-linecap="butt" stroke-linejoin="round" stroke-miterlimit="10" stroke-opacity="1" fill="#9E480E" fill-rule="nonzero" fill-opacity="1"/><path d="M8506.62 3619.6C8506.62 3625.68 8501.7 3630.6 8495.62 3630.6 8489.55 3630.6 8484.62 3625.68 8484.62 3619.6 8484.62 3613.53 8489.55 3608.6 8495.62 3608.6 8501.7 3608.6 8506.62 3613.53 8506.62 3619.6Z" stroke="#9E480E" stroke-width="3.4375" stroke-linecap="butt" stroke-linejoin="round" stroke-miterlimit="10" stroke-opacity="1" fill="#9E480E" fill-rule="nonzero" fill-opacity="1"/><path d="M9369.62 3323.6C9369.62 3329.68 9364.7 3334.6 9358.62 3334.6 9352.55 3334.6 9347.62 3329.68 9347.62 3323.6 9347.62 3317.53 9352.55 3312.6 9358.62 3312.6 9364.7 3312.6 9369.62 3317.53 9369.62 3323.6Z" stroke="#9E480E" stroke-width="3.4375" stroke-linecap="butt" stroke-linejoin="round" stroke-miterlimit="10" stroke-opacity="1" fill="#9E480E" fill-rule="nonzero" fill-opacity="1"/></g><g clip-path="url(#clip17)"><path d="M5045.5 4513.5 6770.72 4281.64 8495.78 3700.62 9358.5 3403.5" stroke="#4472C4" stroke-width="6.875" stroke-linecap="round" stroke-linejoin="round" stroke-miterlimit="10" stroke-opacity="1" fill="none" fill-rule="nonzero"/></g><g clip-path="url(#clip18)"><path d="M5056.62 4513.6C5056.62 4519.68 5051.7 4524.6 5045.62 4524.6 5039.55 4524.6 5034.62 4519.68 5034.62 4513.6 5034.62 4507.53 5039.55 4502.6 5045.62 4502.6 5051.7 4502.6 5056.62 4507.53 5056.62 4513.6Z" stroke="#4472C4" stroke-width="3.4375" stroke-linecap="butt" stroke-linejoin="round" stroke-miterlimit="10" stroke-opacity="1" fill="#4472C4" fill-rule="nonzero" fill-opacity="1"/><path d="M6781.62 4281.6C6781.62 4287.68 6776.7 4292.6 6770.62 4292.6 6764.55 4292.6 6759.62 4287.68 6759.62 4281.6 6759.62 4275.53 6764.55 4270.6 6770.62 4270.6 6776.7 4270.6 6781.62 4275.53 6781.62 4281.6Z" stroke="#4472C4" stroke-width="3.4375" stroke-linecap="butt" stroke-linejoin="round" stroke-miterlimit="10" stroke-opacity="1" fill="#4472C4" fill-rule="nonzero" fill-opacity="1"/><path d="M8506.62 3700.6C8506.62 3706.68 8501.7 3711.6 8495.62 3711.6 8489.55 3711.6 8484.62 3706.68 8484.62 3700.6 8484.62 3694.53 8489.55 3689.6 8495.62 3689.6 8501.7 3689.6 8506.62 3694.53 8506.62 3700.6Z" stroke="#4472C4" stroke-width="3.4375" stroke-linecap="butt" stroke-linejoin="round" stroke-miterlimit="10" stroke-opacity="1" fill="#4472C4" fill-rule="nonzero" fill-opacity="1"/><path d="M9369.62 3403.6C9369.62 3409.68 9364.7 3414.6 9358.62 3414.6 9352.55 3414.6 9347.62 3409.68 9347.62 3403.6 9347.62 3397.53 9352.55 3392.6 9358.62 3392.6 9364.7 3392.6 9369.62 3397.53 9369.62 3403.6Z" stroke="#4472C4" stroke-width="3.4375" stroke-linecap="butt" stroke-linejoin="round" stroke-miterlimit="10" stroke-opacity="1" fill="#4472C4" fill-rule="nonzero" fill-opacity="1"/></g><g clip-path="url(#clip19)"><path d="M5045.5 3913.5 6770.72 3912.63 8495.78 3732.62 9358.5 3467.5" stroke="#ED7D31" stroke-width="6.875" stroke-linecap="round" stroke-linejoin="round" stroke-miterlimit="10" stroke-opacity="1" fill="none" fill-rule="nonzero"/></g><g clip-path="url(#clip20)"><path d="M5056.62 3913.6C5056.62 3919.68 5051.7 3924.6 5045.62 3924.6 5039.55 3924.6 5034.62 3919.68 5034.62 3913.6 5034.62 3907.53 5039.55 3902.6 5045.62 3902.6 5051.7 3902.6 5056.62 3907.53 5056.62 3913.6Z" stroke="#ED7D31" stroke-width="3.4375" stroke-linecap="butt" stroke-linejoin="round" stroke-miterlimit="10" stroke-opacity="1" fill="#ED7D31" fill-rule="nonzero" fill-opacity="1"/><path d="M6781.62 3912.6C6781.62 3918.68 6776.7 3923.6 6770.62 3923.6 6764.55 3923.6 6759.62 3918.68 6759.62 3912.6 6759.62 3906.53 6764.55 3901.6 6770.62 3901.6 6776.7 3901.6 6781.62 3906.53 6781.62 3912.6Z" stroke="#ED7D31" stroke-width="3.4375" stroke-linecap="butt" stroke-linejoin="round" stroke-miterlimit="10" stroke-opacity="1" fill="#ED7D31" fill-rule="nonzero" fill-opacity="1"/><path d="M8506.62 3733.6C8506.62 3739.68 8501.7 3744.6 8495.62 3744.6 8489.55 3744.6 8484.62 3739.68 8484.62 3733.6 8484.62 3727.53 8489.55 3722.6 8495.62 3722.6 8501.7 3722.6 8506.62 3727.53 8506.62 3733.6Z" stroke="#ED7D31" stroke-width="3.4375" stroke-linecap="butt" stroke-linejoin="round" stroke-miterlimit="10" stroke-opacity="1" fill="#ED7D31" fill-rule="nonzero" fill-opacity="1"/><path d="M9369.62 3467.6C9369.62 3473.68 9364.7 3478.6 9358.62 3478.6 9352.55 3478.6 9347.62 3473.68 9347.62 3467.6 9347.62 3461.53 9352.55 3456.6 9358.62 3456.6 9364.7 3456.6 9369.62 3461.53 9369.62 3467.6Z" stroke="#ED7D31" stroke-width="3.4375" stroke-linecap="butt" stroke-linejoin="round" stroke-miterlimit="10" stroke-opacity="1" fill="#ED7D31" fill-rule="nonzero" fill-opacity="1"/></g><g clip-path="url(#clip21)"><text fill="#595959" fill-opacity="1" font-family="Calibri,Calibri_MSFontService,sans-serif" font-style="normal" font-variant="normal" font-weight="400" font-stretch="normal" font-size="41" text-anchor="start" direction="ltr" writing-mode="lr-tb" unicode-bidi="normal" text-decoration="none" transform="matrix(1 0 0 1 4934.21 5549)">0,01</text></g><g clip-path="url(#clip22)"><text fill="#595959" fill-opacity="1" font-family="Calibri,Calibri_MSFontService,sans-serif" font-style="normal" font-variant="normal" font-weight="400" font-stretch="normal" font-size="41" text-anchor="start" direction="ltr" writing-mode="lr-tb" unicode-bidi="normal" text-decoration="none" transform="matrix(1 0 0 1 4955.11 5254)">0,1</text></g><g clip-path="url(#clip23)"><text fill="#595959" fill-opacity="1" font-family="Calibri,Calibri_MSFontService,sans-serif" font-style="normal" font-variant="normal" font-weight="400" font-stretch="normal" font-size="41" text-anchor="start" direction="ltr" writing-mode="lr-tb" unicode-bidi="normal" text-decoration="none" transform="matrix(1 0 0 1 4986.3 4958)">1</text></g><g clip-path="url(#clip24)"><text fill="#595959" fill-opacity="1" font-family="Calibri,Calibri_MSFontService,sans-serif" font-style="normal" font-variant="normal" font-weight="400" font-stretch="normal" font-size="41" text-anchor="start" direction="ltr" writing-mode="lr-tb" unicode-bidi="normal" text-decoration="none" transform="matrix(1 0 0 1 4965.4 4662)">10</text></g><g clip-path="url(#clip25)"><text fill="#595959" fill-opacity="1" font-family="Calibri,Calibri_MSFontService,sans-serif" font-style="normal" font-variant="normal" font-weight="400" font-stretch="normal" font-size="41" text-anchor="start" direction="ltr" writing-mode="lr-tb" unicode-bidi="normal" text-decoration="none" transform="matrix(1 0 0 1 4944.5 4366)">100</text></g><g clip-path="url(#clip26)"><text fill="#595959" fill-opacity="1" font-family="Calibri,Calibri_MSFontService,sans-serif" font-style="normal" font-variant="normal" font-weight="400" font-stretch="normal" font-size="41" text-anchor="start" direction="ltr" writing-mode="lr-tb" unicode-bidi="normal" text-decoration="none" transform="matrix(1 0 0 1 4923.6 4071)">1000</text></g><g clip-path="url(#clip27)"><text fill="#595959" fill-opacity="1" font-family="Calibri,Calibri_MSFontService,sans-serif" font-style="normal" font-variant="normal" font-weight="400" font-stretch="normal" font-size="41" text-anchor="start" direction="ltr" writing-mode="lr-tb" unicode-bidi="normal" text-decoration="none" transform="matrix(1 0 0 1 4902.7 3775)">10000</text></g><g clip-path="url(#clip28)"><text fill="#595959" fill-opacity="1" font-family="Calibri,Calibri_MSFontService,sans-serif" font-style="normal" font-variant="normal" font-weight="400" font-stretch="normal" font-size="41" text-anchor="start" direction="ltr" writing-mode="lr-tb" unicode-bidi="normal" text-decoration="none" transform="matrix(1 0 0 1 4881.8 3479)">100000</text></g><g clip-path="url(#clip29)"><text fill="#595959" fill-opacity="1" font-family="Calibri,Calibri_MSFontService,sans-serif" font-style="normal" font-variant="normal" font-weight="400" font-stretch="normal" font-size="41" text-anchor="start" direction="ltr" writing-mode="lr-tb" unicode-bidi="normal" text-decoration="none" transform="matrix(1 0 0 1 4860.9 3183)">1000000</text></g><g clip-path="url(#clip30)"><text fill="#595959" fill-opacity="1" font-family="Calibri,Calibri_MSFontService,sans-serif" font-style="normal" font-variant="normal" font-weight="400" font-stretch="normal" font-size="41" text-anchor="start" direction="ltr" writing-mode="lr-tb" unicode-bidi="normal" text-decoration="none" transform="matrix(1 0 0 1 4840 2888)">10000000</text></g><g clip-path="url(#clip31)"><text fill="#595959" fill-opacity="1" font-family="Calibri,Calibri_MSFontService,sans-serif" font-style="normal" font-variant="normal" font-weight="400" font-stretch="normal" font-size="41" text-anchor="start" direction="ltr" writing-mode="lr-tb" unicode-bidi="normal" text-decoration="none" transform="matrix(1 0 0 1 5024.57 5604)">10</text></g><g clip-path="url(#clip32)"><text fill="#595959" fill-opacity="1" font-family="Calibri,Calibri_MSFontService,sans-serif" font-style="normal" font-variant="normal" font-weight="400" font-stretch="normal" font-size="41" text-anchor="start" direction="ltr" writing-mode="lr-tb" unicode-bidi="normal" text-decoration="none" transform="matrix(1 0 0 1 5876.67 5604)">100</text></g><g clip-path="url(#clip33)"><text fill="#595959" fill-opacity="1" font-family="Calibri,Calibri_MSFontService,sans-serif" font-style="normal" font-variant="normal" font-weight="400" font-stretch="normal" font-size="41" text-anchor="start" direction="ltr" writing-mode="lr-tb" unicode-bidi="normal" text-decoration="none" transform="matrix(1 0 0 1 6728.77 5604)">1000</text></g><g clip-path="url(#clip34)"><text fill="#595959" fill-opacity="1" font-family="Calibri,Calibri_MSFontService,sans-serif" font-style="normal" font-variant="normal" font-weight="400" font-stretch="normal" font-size="41" text-anchor="start" direction="ltr" writing-mode="lr-tb" unicode-bidi="normal" text-decoration="none" transform="matrix(1 0 0 1 7580.87 5604)">10000</text></g><g clip-path="url(#clip35)"><text fill="#595959" fill-opacity="1" font-family="Calibri,Calibri_MSFontService,sans-serif" font-style="normal" font-variant="normal" font-weight="400" font-stretch="normal" font-size="41" text-anchor="start" direction="ltr" writing-mode="lr-tb" unicode-bidi="normal" text-decoration="none" transform="matrix(1 0 0 1 8432.97 5604)">100000</text></g><g clip-path="url(#clip36)"><text fill="#595959" fill-opacity="1" font-family="Calibri,Calibri_MSFontService,sans-serif" font-style="normal" font-variant="normal" font-weight="400" font-stretch="normal" font-size="41" text-anchor="start" direction="ltr" writing-mode="lr-tb" unicode-bidi="normal" text-decoration="none" transform="matrix(1 0 0 1 9285.07 5604)">1000000</text></g><g clip-path="url(#clip37)"><path d="M5825.5 5666.5 5913.5 5666.5" stroke="#A5A5A5" stroke-width="6.875" stroke-linecap="round" stroke-linejoin="round" stroke-miterlimit="10" stroke-opacity="1" fill="none" fill-rule="evenodd"/></g><g clip-path="url(#clip38)"><path d="M5880 5666C5880 5672.07 5875.08 5677 5869 5677 5862.92 5677 5858 5672.07 5858 5666 5858 5659.92 5862.92 5655 5869 5655 5875.08 5655 5880 5659.92 5880 5666Z" stroke="#A5A5A5" stroke-width="3.4375" stroke-linecap="butt" stroke-linejoin="round" stroke-miterlimit="10" stroke-opacity="1" fill="#A5A5A5" fill-rule="nonzero" fill-opacity="1"/></g><g clip-path="url(#clip39)"><text fill="#595959" fill-opacity="1" font-family="Calibri,Calibri_MSFontService,sans-serif" font-style="normal" font-variant="normal" font-weight="400" font-stretch="normal" font-size="41" text-anchor="start" direction="ltr" writing-mode="lr-tb" unicode-bidi="normal" text-decoration="none" transform="matrix(1 0 0 1 5922.32 5676)">std::sort</text></g><g clip-path="url(#clip40)"><path d="M6127.5 5666.5 6215.5 5666.5" stroke="#FFC000" stroke-width="6.875" stroke-linecap="round" stroke-linejoin="round" stroke-miterlimit="10" stroke-opacity="1" fill="none" fill-rule="evenodd"/></g><g clip-path="url(#clip41)"><path d="M6182.02 5666C6182.02 5672.07 6177.31 5677 6171.5 5677 6165.69 5677 6160.98 5672.07 6160.98 5666 6160.98 5659.92 6165.69 5655 6171.5 5655 6177.31 5655 6182.02 5659.92 6182.02 5666Z" stroke="#FFC000" stroke-width="3.4375" stroke-linecap="butt" stroke-linejoin="round" stroke-miterlimit="10" stroke-opacity="1" fill="#FFC000" fill-rule="nonzero" fill-opacity="1"/></g><g clip-path="url(#clip42)"><text fill="#595959" fill-opacity="1" font-family="Calibri,Calibri_MSFontService,sans-serif" font-style="normal" font-variant="normal" font-weight="400" font-stretch="normal" font-size="41" text-anchor="start" direction="ltr" writing-mode="lr-tb" unicode-bidi="normal" text-decoration="none" transform="matrix(1 0 0 1 6224.5 5676)">std::stable_sort</text></g><g clip-path="url(#clip43)"><path d="M6551.5 5666.5 6639.5 5666.5" stroke="#5B9BD5" stroke-width="6.875" stroke-linecap="round" stroke-linejoin="round" stroke-miterlimit="10" stroke-opacity="1" fill="none" fill-rule="evenodd"/></g><g clip-path="url(#clip44)"><path d="M6606 5666C6606 5672.07 6601.08 5677 6595 5677 6588.92 5677 6584 5672.07 6584 5666 6584 5659.92 6588.92 5655 6595 5655 6601.08 5655 6606 5659.92 6606 5666Z" stroke="#5B9BD5" stroke-width="3.4375" stroke-linecap="butt" stroke-linejoin="round" stroke-miterlimit="10" stroke-opacity="1" fill="#5B9BD5" fill-rule="nonzero" fill-opacity="1"/></g><g clip-path="url(#clip45)"><text fill="#595959" fill-opacity="1" font-family="Calibri,Calibri_MSFontService,sans-serif" font-style="normal" font-variant="normal" font-weight="400" font-stretch="normal" font-size="41" text-anchor="start" direction="ltr" writing-mode="lr-tb" unicode-bidi="normal" text-decoration="none" transform="matrix(1 0 0 1 6648.61 5676)">tri_rapide</text></g><g clip-path="url(#clip46)"><path d="M6879.5 5666.5 6967.5 5666.5" stroke="#70AD47" stroke-width="6.875" stroke-linecap="round" stroke-linejoin="round" stroke-miterlimit="10" stroke-opacity="1" fill="none" fill-rule="evenodd"/></g><g clip-path="url(#clip47)"><path d="M6934 5666C6934 5672.07 6929.08 5677 6923 5677 6916.92 5677 6912 5672.07 6912 5666 6912 5659.92 6916.92 5655 6923 5655 6929.08 5655 6934 5659.92 6934 5666Z" stroke="#70AD47" stroke-width="3.4375" stroke-linecap="butt" stroke-linejoin="round" stroke-miterlimit="10" stroke-opacity="1" fill="#70AD47" fill-rule="nonzero" fill-opacity="1"/></g><g clip-path="url(#clip48)"><text fill="#595959" fill-opacity="1" font-family="Calibri,Calibri_MSFontService,sans-serif" font-style="normal" font-variant="normal" font-weight="400" font-stretch="normal" font-size="41" text-anchor="start" direction="ltr" writing-mode="lr-tb" unicode-bidi="normal" text-decoration="none" transform="matrix(1 0 0 1 6976.7 5676)">tri_base_1</text></g><g clip-path="url(#clip49)"><path d="M7219.5 5666.5 7307.5 5666.5" stroke="#264478" stroke-width="6.875" stroke-linecap="round" stroke-linejoin="round" stroke-miterlimit="10" stroke-opacity="1" fill="none" fill-rule="evenodd"/></g><g clip-path="url(#clip50)"><path d="M7274 5666C7274 5672.07 7269.08 5677 7263 5677 7256.92 5677 7252 5672.07 7252 5666 7252 5659.92 7256.92 5655 7263 5655 7269.08 5655 7274 5659.92 7274 5666Z" stroke="#264478" stroke-width="3.4375" stroke-linecap="butt" stroke-linejoin="round" stroke-miterlimit="10" stroke-opacity="1" fill="#264478" fill-rule="nonzero" fill-opacity="1"/></g><g clip-path="url(#clip51)"><text fill="#595959" fill-opacity="1" font-family="Calibri,Calibri_MSFontService,sans-serif" font-style="normal" font-variant="normal" font-weight="400" font-stretch="normal" font-size="41" text-anchor="start" direction="ltr" writing-mode="lr-tb" unicode-bidi="normal" text-decoration="none" transform="matrix(1 0 0 1 7316.81 5676)">tri_base_2</text></g><g clip-path="url(#clip52)"><path d="M7559.5 5666.5 7647.5 5666.5" stroke="#9E480E" stroke-width="6.875" stroke-linecap="round" stroke-linejoin="round" stroke-miterlimit="10" stroke-opacity="1" fill="none" fill-rule="evenodd"/></g><g clip-path="url(#clip53)"><path d="M7614 5666C7614 5672.07 7609.08 5677 7603 5677 7596.92 5677 7592 5672.07 7592 5666 7592 5659.92 7596.92 5655 7603 5655 7609.08 5655 7614 5659.92 7614 5666Z" stroke="#9E480E" stroke-width="3.4375" stroke-linecap="butt" stroke-linejoin="round" stroke-miterlimit="10" stroke-opacity="1" fill="#9E480E" fill-rule="nonzero" fill-opacity="1"/></g><g clip-path="url(#clip54)"><text fill="#595959" fill-opacity="1" font-family="Calibri,Calibri_MSFontService,sans-serif" font-style="normal" font-variant="normal" font-weight="400" font-stretch="normal" font-size="41" text-anchor="start" direction="ltr" writing-mode="lr-tb" unicode-bidi="normal" text-decoration="none" transform="matrix(1 0 0 1 7656.93 5676)">tri_base_4</text></g><g clip-path="url(#clip55)"><path d="M7899.5 5666.5 7987.5 5666.5" stroke="#4472C4" stroke-width="6.875" stroke-linecap="round" stroke-linejoin="round" stroke-miterlimit="10" stroke-opacity="1" fill="none" fill-rule="evenodd"/></g><g clip-path="url(#clip56)"><path d="M7954 5666C7954 5672.07 7949.08 5677 7943 5677 7936.92 5677 7932 5672.07 7932 5666 7932 5659.92 7936.92 5655 7943 5655 7949.08 5655 7954 5659.92 7954 5666Z" stroke="#4472C4" stroke-width="3.4375" stroke-linecap="butt" stroke-linejoin="round" stroke-miterlimit="10" stroke-opacity="1" fill="#4472C4" fill-rule="nonzero" fill-opacity="1"/></g><g clip-path="url(#clip57)"><text fill="#595959" fill-opacity="1" font-family="Calibri,Calibri_MSFontService,sans-serif" font-style="normal" font-variant="normal" font-weight="400" font-stretch="normal" font-size="41" text-anchor="start" direction="ltr" writing-mode="lr-tb" unicode-bidi="normal" text-decoration="none" transform="matrix(1 0 0 1 7997.04 5676)">tri_base_8</text></g><g clip-path="url(#clip58)"><path d="M8239.5 5666.5 8327.5 5666.5" stroke="#ED7D31" stroke-width="6.875" stroke-linecap="round" stroke-linejoin="round" stroke-miterlimit="10" stroke-opacity="1" fill="none" fill-rule="evenodd"/></g><g clip-path="url(#clip59)"><path d="M8294.02 5666C8294.02 5672.07 8289.31 5677 8283.5 5677 8277.69 5677 8272.98 5672.07 8272.98 5666 8272.98 5659.92 8277.69 5655 8283.5 5655 8289.31 5655 8294.02 5659.92 8294.02 5666Z" stroke="#ED7D31" stroke-width="3.4375" stroke-linecap="butt" stroke-linejoin="round" stroke-miterlimit="10" stroke-opacity="1" fill="#ED7D31" fill-rule="nonzero" fill-opacity="1"/></g><g clip-path="url(#clip60)"><text fill="#595959" fill-opacity="1" font-family="Calibri,Calibri_MSFontService,sans-serif" font-style="normal" font-variant="normal" font-weight="400" font-stretch="normal" font-size="41" text-anchor="start" direction="ltr" writing-mode="lr-tb" unicode-bidi="normal" text-decoration="none" transform="matrix(1 0 0 1 8337.16 5676)">tri_base_16</text></g><rect x="4833.5" y="2680.5" width="4672" height="3131" stroke="#D9D9D9" stroke-width="3.4375" stroke-linecap="butt" stroke-linejoin="round" stroke-miterlimit="10" stroke-opacity="1" fill="none"/></g></svg>